<svg width="21" height="24" viewBox="0 0 21 24" fill="none" xmlns="http://www.w3.org/2000/svg">
    <path d="M1.74896 6C1.74896 5.44772 2.14048 5 2.62344 5H15.7406C16.2236 5 16.6151 5.44772 16.6151 6C16.6151 6.55228 16.2236 7 15.7406 7H2.62344C2.14048 7 1.74896 6.55228 1.74896 6ZM1.74896 18C1.74896 17.4477 2.14048 17 2.62344 17H12.2427C12.7257 17 13.1172 17.4477 13.1172 18C13.1172 18.5523 12.7257 19 12.2427 19H2.62344C2.14048 19 1.74896 18.5523 1.74896 18ZM2.62344 11C2.14048 11 1.74896 11.4477 1.74896 12C1.74896 12.5523 2.14048 13 2.62344 13H18.3641C18.847 13 19.2385 12.5523 19.2385 12C19.2385 11.4477 18.847 11 18.3641 11H2.62344Z" 
    fill="#111"/>
    </svg>
    