<svg width="18" height="18" viewBox="0 0 18 18" fill="none" xmlns="http://www.w3.org/2000/svg">
<path d="M9 3.75C12.5208 3.75 15.375 6.60419 15.375 10.125C15.375 13.6458 12.5208 16.5 9 16.5C5.47919 16.5 2.625 13.6458 2.625 10.125C2.625 6.60419 5.47919 3.75 9 3.75ZM9 6C8.71522 6 8.47987 6.21161 8.4426 6.48617L8.4375 6.5625V9.9375L8.4426 10.0138C8.47987 10.2883 8.71522 10.5 9 10.5C9.28478 10.5 9.52013 10.2883 9.5574 10.0138L9.5625 9.9375V6.5625L9.5574 6.48617C9.52013 6.21161 9.28478 6 9 6ZM14.3778 3.84195L14.4388 3.88818L15.3006 4.63818C15.5349 4.84213 15.5596 5.19743 15.3556 5.43177C15.1687 5.64659 14.8546 5.68519 14.623 5.53305L14.562 5.48682L13.7003 4.73682C13.4659 4.53287 13.4413 4.17757 13.6452 3.94323C13.8321 3.72841 14.1463 3.68981 14.3778 3.84195ZM10.6875 1.875C10.9982 1.875 11.25 2.12684 11.25 2.4375C11.25 2.72228 11.0383 2.95762 10.7638 2.99486L10.6875 3H7.3125C7.00184 3 6.75 2.74816 6.75 2.4375C6.75 2.15272 6.96161 1.91738 7.23617 1.88014L7.3125 1.875H10.6875Z" fill="black"/>
</svg>