<svg width="18" height="18" viewBox="0 0 18 18" fill="none" xmlns="http://www.w3.org/2000/svg">
<path d="M8.99992 6.75346C10.6567 6.75346 11.9999 8.09662 11.9999 9.75345C11.9999 11.4103 10.6567 12.7535 8.99992 12.7535C7.34305 12.7535 5.9999 11.4103 5.9999 9.75345C5.9999 8.09662 7.34305 6.75346 8.99992 6.75346ZM8.99992 4.125C12.46 4.125 15.447 6.48751 16.2757 9.7983C16.3512 10.0996 16.168 10.4051 15.8667 10.4806C15.5653 10.556 15.2599 10.3729 15.1844 10.0715C14.4802 7.25847 11.9409 5.25 8.99992 5.25C6.05761 5.25 3.51748 7.26019 2.81455 10.0749C2.73928 10.3762 2.43392 10.5596 2.13252 10.4843C1.83112 10.409 1.6478 10.1037 1.72307 9.80228C2.55039 6.48954 5.53827 4.125 8.99992 4.125Z" fill="black"/>
</svg>
